<svg width="32" height="32" viewBox="0 0 32 32" fill="none" xmlns="http://www.w3.org/2000/svg">
<rect width="32" height="32" rx="16" fill="#0E1720"/>
<path fill-rule="evenodd" clip-rule="evenodd" d="M16.8455 7.77246C18.327 7.77515 18.6404 7.78702 19.3927 7.82134C20.2687 7.86129 20.8668 8.00042 21.3902 8.20385C21.9314 8.41412 22.3903 8.6955 22.8478 9.15298C23.3052 9.61049 23.5867 10.0694 23.797 10.6105C24.0004 11.134 24.1395 11.7322 24.1794 12.6081C24.2138 13.3604 24.2257 13.6737 24.2283 15.1553L24.229 15.7688V16.0009C24.229 16.0807 24.229 16.158 24.229 16.233L24.2283 16.8465C24.2257 18.328 24.2138 18.6413 24.1794 19.3937C24.1395 20.2696 24.0004 20.8678 23.797 21.3912C23.5867 21.9324 23.3052 22.3913 22.8478 22.8488C22.3903 23.3062 21.9314 23.5876 21.3902 23.7979C20.8668 24.0014 20.2687 24.1404 19.3927 24.1804C18.6404 24.2148 18.327 24.2266 16.8455 24.2293L16.232 24.2299H15.9999C15.9201 24.2299 15.8428 24.2299 15.7678 24.2299L15.1543 24.2293C13.6728 24.2266 13.3594 24.2148 12.6071 24.1804C11.7312 24.1404 11.133 24.0014 10.6096 23.7979C10.0684 23.5876 9.60951 23.3062 9.152 22.8488C8.69452 22.3913 8.41314 21.9324 8.20287 21.3912C7.99944 20.8678 7.86031 20.2696 7.82036 19.3937C7.78604 18.6413 7.77417 18.328 7.77148 16.8465V15.1553C7.77417 13.6737 7.78604 13.3604 7.82036 12.6081C7.86031 11.7322 7.99944 11.134 8.20287 10.6105C8.41314 10.0694 8.69452 9.61049 9.152 9.15298C9.60951 8.6955 10.0684 8.41412 10.6096 8.20385C11.133 8.00042 11.7312 7.86129 12.6071 7.82134C13.3594 7.78702 13.6728 7.77515 15.1543 7.77246H16.8455ZM16.4574 9.25468H15.5425C14.2596 9.25559 13.7539 9.26098 13.2714 9.27762L13.1104 9.28359C12.9752 9.28893 12.8353 9.29518 12.6747 9.30251C11.8723 9.3391 11.4366 9.47316 11.1466 9.58586C10.7625 9.73513 10.4884 9.91345 10.2005 10.2014C9.91247 10.4894 9.73416 10.7635 9.58488 11.1476C9.47218 11.4376 9.33813 11.8733 9.30154 12.6756C9.2942 12.8363 9.28795 12.9762 9.28261 13.1114L9.27664 13.2724C9.26001 13.7549 9.25461 14.2606 9.2537 15.5435V16.4584C9.25461 17.7411 9.26001 18.2468 9.27664 18.7294L9.28261 18.8904C9.28795 19.0255 9.2942 19.1654 9.30154 19.3262C9.33813 20.1285 9.47218 20.5642 9.58488 20.8541C9.73416 21.2382 9.91251 21.5123 10.2005 21.8004C10.4884 22.0883 10.7625 22.2667 11.1466 22.4159C11.4366 22.5286 11.8723 22.6626 12.6747 22.6992C12.8353 22.7066 12.9752 22.7128 13.1103 22.7181L13.2713 22.7242C13.7538 22.7408 14.2595 22.7462 15.5425 22.7471H16.4574C17.7403 22.7462 18.246 22.7408 18.7285 22.7242L18.8895 22.7181C19.0246 22.7128 19.1644 22.7066 19.3252 22.6992C20.1275 22.6626 20.5632 22.5286 20.8532 22.4159C21.2373 22.2667 21.5114 22.0883 21.7994 21.8004C22.0873 21.5123 22.2657 21.2382 22.4149 20.8541C22.5276 20.5642 22.6617 20.1285 22.6982 19.3262C22.7056 19.1654 22.7119 19.0255 22.7172 18.8904L22.7232 18.7294C22.7398 18.2468 22.7452 17.7411 22.7461 16.4584V15.5435C22.7452 14.2606 22.7398 13.7549 22.7232 13.2724L22.7172 13.1114C22.7119 12.9762 22.7056 12.8363 22.6982 12.6756C22.6617 11.8733 22.5276 11.4376 22.4149 11.1476C22.2657 10.7635 22.0873 10.4894 21.7994 10.2014C21.5114 9.91345 21.2373 9.73513 20.8532 9.58586C20.5632 9.47316 20.1275 9.3391 19.3252 9.30251C19.1644 9.29518 19.0246 9.28893 18.8894 9.28359L18.7284 9.27762C18.2458 9.26098 17.7401 9.25559 16.4574 9.25468ZM15.9999 11.7751C18.3337 11.7751 20.2256 13.6671 20.2256 16.0009C20.2256 18.3347 18.3337 20.2266 15.9999 20.2266C13.6661 20.2266 11.7742 18.3347 11.7742 16.0009C11.7742 13.6671 13.6661 11.7751 15.9999 11.7751ZM15.9999 13.2579C14.485 13.2579 13.2569 14.4859 13.2569 16.0009C13.2569 17.5158 14.485 18.7439 15.9999 18.7439C17.5149 18.7439 18.743 17.5158 18.743 16.0009C18.743 14.4859 17.5149 13.2579 15.9999 13.2579ZM20.3925 10.6207C20.9379 10.6207 21.3801 11.0628 21.3801 11.6082C21.3801 12.1536 20.9379 12.5957 20.3925 12.5957C19.8472 12.5957 19.4051 12.1536 19.4051 11.6082C19.4051 11.0628 19.8472 10.6207 20.3925 10.6207Z" fill="white" stroke="white" stroke-width="0.457152"/>
</svg>
