<svg width="32" height="32" viewBox="0 0 32 32" fill="none" xmlns="http://www.w3.org/2000/svg">
<rect width="32" height="32" rx="16" fill="#0E1720"/>
<path fill-rule="evenodd" clip-rule="evenodd" d="M11.7222 8.02734C10.7726 8.02734 10 8.79907 10 9.74765C10 10.6966 10.7726 11.4687 11.7222 11.4687C12.6711 11.4687 13.443 10.6966 13.443 9.74765C13.443 8.79907 12.6711 8.02734 11.7222 8.02734ZM13.0269 12.1959H10.4171C10.3012 12.1959 10.2074 12.2898 10.2074 12.4056V20.79C10.2074 20.9058 10.3012 20.9997 10.4171 20.9997H13.0269C13.1428 20.9997 13.2366 20.9058 13.2366 20.79V12.4056C13.2366 12.2898 13.1428 12.1959 13.0269 12.1959ZM17.3709 12.9511C17.8409 12.4391 18.6157 11.9885 19.664 11.9885C22.6035 11.9885 22.9999 14.1134 22.9999 16.192V20.7911C22.9999 20.9069 22.906 21.0007 22.7902 21.0007H20.1851C20.0692 21.0007 19.9754 20.9069 19.9754 20.7911V16.7146C19.9754 15.5732 19.891 14.7002 18.8298 14.7002C17.8553 14.7002 17.4756 15.2448 17.4756 16.6427V20.791C17.4756 20.9068 17.3818 21.0007 17.2659 21.0007H14.6618C14.5459 21.0007 14.4521 20.9068 14.4521 20.791V12.4066C14.4521 12.2908 14.5459 12.1969 14.6618 12.1969H17.1612C17.277 12.1969 17.3709 12.2908 17.3709 12.4066V12.9511Z" fill="white"/>
</svg>
