<svg width="32" height="32" viewBox="0 0 32 32" fill="none" xmlns="http://www.w3.org/2000/svg">
<rect width="32" height="32" rx="16" fill="#0E1720"/>
<path d="M20.814 9.74208C19.6754 8.61871 18.0998 8 16.3774 8C13.7464 8 12.1282 9.10849 11.234 10.0384C10.1319 11.1843 9.5 12.7059 9.5 14.2131C9.5 16.1054 10.2701 17.5579 11.5598 18.0982C11.6463 18.1347 11.7335 18.1531 11.8189 18.1531C12.091 18.1531 12.3065 17.9701 12.3812 17.6766C12.4248 17.5082 12.5256 17.0928 12.5695 16.9125C12.6634 16.5564 12.5875 16.3851 12.3828 16.1371C12.0098 15.6835 11.8361 15.1471 11.8361 14.449C11.8361 12.3754 13.3383 10.1716 16.1226 10.1716C18.3318 10.1716 19.7041 11.4621 19.7041 13.5396C19.7041 14.8505 19.4294 16.0645 18.9304 16.9582C18.5836 17.5792 17.9738 18.3194 17.0378 18.3194C16.633 18.3194 16.2694 18.1485 16.0399 17.8505C15.8232 17.5688 15.7518 17.205 15.8389 16.8258C15.9374 16.3973 16.0717 15.9504 16.2017 15.5184C16.4387 14.7293 16.6628 13.9839 16.6628 13.3893C16.6628 12.3722 16.0544 11.6888 15.149 11.6888C13.9985 11.6888 13.0971 12.8899 13.0971 14.4232C13.0971 15.1752 13.2915 15.7377 13.3795 15.9536C13.2346 16.5848 12.3731 20.3375 12.2097 21.0451C12.1152 21.4582 11.5461 24.7209 12.4881 24.981C13.5466 25.2733 14.4927 22.0957 14.589 21.7366C14.667 21.4446 14.9401 20.3404 15.1075 19.6616C15.6184 20.1674 16.4411 20.5094 17.2417 20.5094C18.7508 20.5094 20.108 19.8114 21.0633 18.5442C21.9897 17.315 22.5 15.6017 22.5 13.7203C22.4999 12.2495 21.8854 10.7994 20.814 9.74208Z" fill="white"/>
</svg>
