<svg width="32" height="32" viewBox="0 0 32 32" fill="none" xmlns="http://www.w3.org/2000/svg">
<rect width="32" height="32" rx="16" fill="#0E1720"/>
<path d="M23.3295 14.4762H22.9485C21.5009 14.4762 20.2057 13.7143 19.4437 12.5714V19.1238C19.4437 21.7905 17.3104 24 14.6437 24C11.9771 24 9.84375 21.7905 9.84375 19.1238C9.84375 16.4571 11.9771 14.2476 14.6437 14.2476H14.9485V16.6095H14.6437C13.2723 16.6095 12.2057 17.7524 12.2057 19.1238C12.2057 20.4952 13.2723 21.6381 14.6437 21.6381C16.0152 21.6381 17.158 20.5714 17.158 19.2V8H19.4437C19.6723 10.0571 21.2723 11.6571 23.3295 11.8095V14.4762Z" fill="white"/>
</svg>
