<svg width="32" height="32" viewBox="0 0 32 32" fill="none" xmlns="http://www.w3.org/2000/svg">
<rect width="32" height="32" rx="16" fill="#0E1720"/>
<g clip-path="url(#clip0_439_3355)">
<path d="M24.0006 11.2497C23.4118 11.4998 22.7792 11.6682 22.1152 11.7442C22.7932 11.3556 23.3139 10.7398 23.5586 10.0061C22.9245 10.3659 22.2218 10.6275 21.4738 10.7686C20.8757 10.1579 20.0218 9.77637 19.0777 9.77637C16.9583 9.77637 15.4009 11.6689 15.8796 13.6335C13.1522 13.5027 10.7334 12.2521 9.11404 10.3513C8.25401 11.7633 8.66802 13.6105 10.1294 14.5459C9.59206 14.5293 9.08537 14.3883 8.64336 14.1529C8.60735 15.6083 9.69739 16.9699 11.2761 17.273C10.8141 17.393 10.3081 17.4211 9.7934 17.3266C10.2107 18.5747 11.4228 19.4827 12.8602 19.5082C11.4801 20.5438 9.74139 21.0064 8 20.8098C9.45272 21.7012 11.1788 22.2212 13.0322 22.2212C19.1271 22.2212 22.5705 17.2947 22.3625 12.8761C23.0038 12.4326 23.5605 11.8794 24.0006 11.2497Z" fill="white"/>
</g>
<defs>
<clipPath id="clip0_439_3355">
<rect width="16.0006" height="12.4449" fill="white" transform="translate(8 9.77686)"/>
</clipPath>
</defs>
</svg>
