<svg width="32" height="32" viewBox="0 0 32 32" fill="none" xmlns="http://www.w3.org/2000/svg">
<rect width="32" height="32" rx="16" fill="#0E1720"/>
<path fill-rule="evenodd" clip-rule="evenodd" d="M22.2317 10.7454C22.9209 10.9297 23.4586 11.4695 23.645 12.1587C24.1325 14.125 24.1007 17.8426 23.6552 19.8396C23.4709 20.5289 22.9312 21.0665 22.2419 21.2529C20.2961 21.7343 11.5808 21.6749 9.74759 21.2529C9.05835 21.0686 8.52069 20.5289 8.3343 19.8396C7.87447 17.9655 7.90621 14.0021 8.32406 12.1689C8.5084 11.4797 9.04811 10.942 9.73735 10.7556C12.3386 10.2128 21.3059 10.388 22.2317 10.7454ZM14.4492 13.6016L18.6276 15.998L14.4492 18.3945V13.6016Z" fill="white"/>
</svg>
