<svg width="29" height="12" viewBox="0 0 29 12" fill="none" xmlns="http://www.w3.org/2000/svg">
<path d="M25.6857 11.5168H29L22.3714 0.125L15.7429 11.5168H19.0571L19.0577 11.5158H19.0589L20.716 8.66784H20.7149L22.3714 5.82091L22.372 5.82189L22.3722 5.82147L22.3729 5.82351L25.6857 11.5168Z" fill="#111827"/>
<path d="M10.7714 0.12603L0 0.12603L1.26179e-07 2.91991L9.06963 2.91991L14.0857 11.5179L20.7143 0.12603H17.4L14.0857 5.82194L10.7714 0.12603Z" fill="#111827"/>
<path d="M12.419 11.5179L1.26179e-07 11.5179L0 8.72397L10.7978 8.72398L12.419 11.5179Z" fill="#111827"/>
<path d="M8.3202 4.45204L9.91006 7.19185L1.26179e-07 7.19185L0 4.45204L8.3202 4.45204Z" fill="#111827"/>
</svg>
