<svg width="160" height="20" viewBox="0 0 160 20" fill="none" xmlns="http://www.w3.org/2000/svg">
<g clip-path="url(#clip0_404_1449)">
<path d="M17.3143 19.0678L4.60577 10.0187V19.0644H0L7.83888e-06 0.641365L2.70306e-06 0.63969L12.7085 9.68885V0.641356H17.3143V19.0678Z" fill="white"/>
<path d="M36.8035 0.641356H19.6172V5.24712H34.1594L42.0916 19.0644L47.3797 9.85289L52.6678 19.0644L63.244 0.641356H57.9559L52.6678 9.85289L47.3797 0.641356L42.0916 9.85289L36.8035 0.641356Z" fill="white"/>
<path d="M120.11 19.0644H114.822L109.534 9.85289L106.875 14.4996H109.534V19.0628H104.271L104.246 19.0644H88.6251V0.641356H93.2309V14.4587H101.602L109.534 0.641356L120.11 19.0644Z" fill="white"/>
<path d="M19.6172 19.0644H39.4475L36.8035 14.4587H19.6172V19.0644Z" fill="white"/>
<path d="M19.6172 12.1558V7.55001H32.8374L35.4815 12.1558H19.6172Z" fill="white"/>
<path fill-rule="evenodd" clip-rule="evenodd" d="M69.008 19.0628V0.63969H79.84C83.2329 0.63969 85.5973 3.21728 85.5973 6.3969C85.5973 7.33184 85.3744 8.21472 84.9789 8.99533C86.1691 10.0501 86.9193 11.5902 86.9193 13.3055C86.9193 16.4852 84.6829 19.0628 81.1621 19.0628H69.008ZM82.2709 13.3055C82.2709 12.6696 81.6701 11.9835 81.0341 11.9835H73.6137V14.6276H81.0341C81.6701 14.6276 82.2709 13.9415 82.2709 13.3055ZM73.6137 5.07487H79.7121C80.348 5.07487 80.9488 5.76097 80.9488 6.3969C80.9488 7.03282 80.348 7.71892 79.7121 7.71892H73.6137V5.07487Z" fill="white"/>
<path d="M140.111 0.641356H144.717V8.35338L152.429 0.641356H158.943L150.26 9.32421L160 19.0644H153.486L147.003 12.581L144.717 14.8669V19.0644H140.111V0.641356Z" fill="white"/>
<path d="M138.444 7.54834C137.35 3.21074 133.423 0 128.746 0C123.223 0 118.746 4.47737 118.746 10.0005C118.746 15.5236 123.223 20.001 128.746 20.001C133.53 20.001 137.529 16.6421 138.514 12.1541H133.643C132.814 14.0353 130.934 15.3487 128.746 15.3487C125.792 15.3487 123.398 12.9542 123.398 10.0005C123.398 7.04677 125.792 4.65232 128.746 4.65232C130.816 4.65232 132.611 5.82817 133.5 7.54834H138.444Z" fill="white"/>
</g>
<defs>
<clipPath id="clip0_404_1449">
<rect width="160" height="20" fill="white"/>
</clipPath>
</defs>
</svg>
