<svg width="250" height="78" viewBox="0 0 250 78" fill="none" xmlns="http://www.w3.org/2000/svg">
<path d="M0 76.0685H13.3417V43.1351C13.3417 35.7056 18.7896 30.8266 26.9058 30.8266C35.022 30.8266 40.4699 35.7056 40.4699 43.1351V76.0685H53.8116V41.5827C53.8116 28.0544 43.6941 19.0726 28.4623 19.0726C23.0145 19.0726 17.0107 21.2903 13.3417 24.7278V20.625H0V76.0685Z" fill="white"/>
<path d="M90.88 77.621C104.444 77.621 116.007 69.4153 119.676 57.2177H106.112C103.555 62.7621 97.4397 66.5323 90.88 66.5323C82.2079 66.5323 75.5371 60.7661 74.3141 52.006H119.898L121.01 50.8972V48.3468C121.01 30.8266 109.003 19.0726 90.88 19.0726C72.7575 19.0726 60.75 30.8266 60.75 48.3468C60.75 65.8669 72.7575 77.621 90.88 77.621ZM75.2035 40.9173C77.7607 34.0423 83.4309 30.1613 90.88 30.1613C98.3292 30.1613 103.999 34.0423 106.557 40.9173H75.2035Z" fill="white"/>
<path d="M128.987 76.0685H142.329V43.246C142.329 35.8165 148.222 30.8266 157.116 30.8266H161.675V20.625C160.118 19.9597 157.783 19.5161 155.782 19.5161C150.668 19.5161 145.22 22.621 142.329 27.1673V20.625H128.987V76.0685Z" fill="white"/>
<path d="M191.511 77.621C198.293 77.621 205.742 74.5161 209.967 69.9697V76.0685H223.309V0H209.967V26.7238C205.742 22.1774 198.293 19.0726 191.511 19.0726C173.944 19.0726 162.159 30.8266 162.159 48.3468C162.159 65.8669 173.944 77.621 191.511 77.621ZM192.845 65.8669C182.394 65.8669 175.501 58.881 175.501 48.3468C175.501 37.8125 182.394 30.8266 192.845 30.8266C203.074 30.8266 209.967 37.8125 209.967 48.3468C209.967 58.881 203.074 65.8669 192.845 65.8669Z" fill="white"/>
<path d="M233.545 76.0685H250V59.6573H233.545V76.0685Z" fill="url(#paint0_linear_712_376)"/>
<defs>
<linearGradient id="paint0_linear_712_376" x1="250" y1="0" x2="206.038" y2="141.592" gradientUnits="userSpaceOnUse">
<stop stop-color="#B14CEE"/>
<stop offset="1" stop-color="#E75381"/>
</linearGradient>
</defs>
</svg>
